<svg xmlns="http://www.w3.org/2000/svg" width="50" height="50" fill="none"><path fill="#01384D" fill-rule="evenodd" d="M10.9 22.167a2.082 2.082 0 0 0 2.933.266l9.083-7.568v24.718a2.084 2.084 0 0 0 4.167 0V14.866l9.084 7.568a2.082 2.082 0 0 0 2.933-.266 2.08 2.08 0 0 0-.267-2.934l-12.5-10.416c-.098-.084-.214-.123-.323-.186-.085-.05-.16-.108-.254-.145A2.067 2.067 0 0 0 25 8.334c-.259 0-.513.056-.756.152-.094.037-.17.095-.255.145-.108.063-.225.102-.323.186l-12.5 10.416a2.082 2.082 0 0 0-.266 2.934Z" clip-rule="evenodd"/><mask id="a" width="30" height="34" x="10" y="8" maskUnits="userSpaceOnUse" style="mask-type:luminance"><path fill="#fff" fill-rule="evenodd" d="M10.9 22.167a2.082 2.082 0 0 0 2.933.266l9.083-7.568v24.718a2.084 2.084 0 0 0 4.167 0V14.866l9.084 7.568a2.082 2.082 0 0 0 2.933-.266 2.08 2.08 0 0 0-.267-2.934l-12.5-10.416c-.098-.084-.214-.123-.323-.186-.085-.05-.16-.108-.254-.145A2.067 2.067 0 0 0 25 8.334c-.259 0-.513.056-.756.152-.094.037-.17.095-.255.145-.108.063-.225.102-.323.186l-12.5 10.416a2.082 2.082 0 0 0-.266 2.934Z" clip-rule="evenodd"/></mask><g mask="url(#a)"><path fill="#01384D" d="M0 0h50v50H0z"/></g></svg>