<svg xmlns="http://www.w3.org/2000/svg" width="20" height="20" fill="none"><path fill="#01384D" fill-rule="evenodd" d="M.99 2.873C1.307 2.349 3.05.443 4.293.5c.372.031.7.256.968.517.613.599 2.368 2.863 2.468 3.34.242 1.168-1.15 1.842-.725 3.02 1.087 2.659 2.96 4.53 5.62 5.616 1.176.427 1.85-.966 3.019-.723.475.1 2.74 1.855 3.34 2.468.26.266.485.596.516.967.046 1.31-1.977 3.077-2.371 3.303-.93.666-2.145.654-3.625-.034-4.13-1.718-10.729-8.193-12.479-12.478C.354 5.025.308 3.803.99 2.873Z" clip-rule="evenodd"/></svg>