<svg xmlns="http://www.w3.org/2000/svg" width="160" height="38" fill="none"><path fill="#01384D" d="M29.072 10.448a8.153 8.153 0 0 0-2.744.466 8.18 8.18 0 1 0-15.418 0 8.18 8.18 0 1 0 0 15.42 8.179 8.179 0 1 0 15.418 0 8.18 8.18 0 1 0 2.744-15.886ZM10.934 26.329a23.037 23.037 0 0 0 0-15.388 23.057 23.057 0 0 0 15.388 0 23.057 23.057 0 0 0 0 15.388 23.057 23.057 0 0 0-15.386 0h-.002ZM46.474 24.073V12.914a.079.079 0 0 1 .077-.079h3.939c1.223 0 2.243.252 3.06.757.8.485 1.44 1.194 1.84 2.04a6.5 6.5 0 0 1 .615 2.846 6.289 6.289 0 0 1-.678 2.995 4.822 4.822 0 0 1-1.921 1.978c-.895.483-1.9.724-2.916.698H46.55a.08.08 0 0 1-.077-.076Zm7.714-5.59a4.823 4.823 0 0 0-.44-2.113 3.368 3.368 0 0 0-1.258-1.434 3.68 3.68 0 0 0-2-.517h-2.152a.079.079 0 0 0-.08.077V22.5a.08.08 0 0 0 .08.077h2.152a3.585 3.585 0 0 0 2.017-.54c.547-.361.98-.87 1.25-1.467a4.892 4.892 0 0 0 .431-2.092v.005ZM57.884 24.072V12.914a.08.08 0 0 1 .08-.08h4.856c.484-.003.962.106 1.397.32.42.209.796.496 1.109.845.31.347.558.746.73 1.179.175.425.264.88.264 1.339.001.491-.09.978-.27 1.435a3.368 3.368 0 0 1-.773 1.178 3.026 3.026 0 0 1-1.081.687.076.076 0 0 0-.047.046.075.075 0 0 0 .007.066l2.537 4.104a.076.076 0 0 1-.065.118h-1.826a.077.077 0 0 1-.066-.037l-2.408-3.864a.08.08 0 0 0-.067-.035h-2.509a.077.077 0 0 0-.077.077v3.78a.078.078 0 0 1-.048.073.079.079 0 0 1-.03.006h-1.631a.08.08 0 0 1-.058-.022.078.078 0 0 1-.024-.057Zm1.787-5.512a.077.077 0 0 0 .077.077h3.046c.316.004.624-.097.876-.287.264-.202.472-.468.605-.773.154-.332.234-.694.233-1.06a2.19 2.19 0 0 0-.915-1.817 1.507 1.507 0 0 0-.885-.286h-2.951a.077.077 0 0 0-.077.077v4.069h-.01ZM76.181 22.652v1.42a.08.08 0 0 1-.077.08h-7.606a.08.08 0 0 1-.077-.08V12.915a.079.079 0 0 1 .077-.079h7.453a.079.079 0 0 1 .077.08v1.42a.08.08 0 0 1-.077.079h-5.678a.077.077 0 0 0-.077.077v3.063a.08.08 0 0 0 .076.079h4.891a.077.077 0 0 1 .077.077v1.327a.077.077 0 0 1-.077.077h-4.89a.079.079 0 0 0-.077.08v3.302a.077.077 0 0 0 .076.077h5.823a.081.081 0 0 1 .06.02.08.08 0 0 1 .026.059ZM81.352 12.835h1.581a.078.078 0 0 1 .072.051l4.34 11.159a.08.08 0 0 1-.037.097.079.079 0 0 1-.036.01H85.56a.081.081 0 0 1-.074-.051l-1.067-2.974a.081.081 0 0 0-.075-.052H79.92a.075.075 0 0 0-.072.052L78.774 24.1a.081.081 0 0 1-.075.05H76.97a.079.079 0 0 1-.072-.106l4.369-11.16a.081.081 0 0 1 .084-.05Zm2.534 6.813-1.67-4.658a.08.08 0 0 0-.074-.05.079.079 0 0 0-.073.05l-1.68 4.658a.076.076 0 0 0 .01.072.077.077 0 0 0 .065.033h3.35a.077.077 0 0 0 .076-.069.077.077 0 0 0-.004-.036ZM98.302 24.073v-7.686a.076.076 0 0 0-.058-.08.077.077 0 0 0-.088.043l-3.161 5.808a.08.08 0 0 1-.07.042h-.96a.076.076 0 0 1-.067-.042l-3.179-5.823a.079.079 0 0 0-.087-.035.08.08 0 0 0-.06.073v7.686a.079.079 0 0 1-.077.079h-1.63a.079.079 0 0 1-.08-.08V12.9a.08.08 0 0 1 .08-.079h1.786c.015 0 .029.004.041.012a.082.082 0 0 1 .03.03l3.654 6.754a.08.08 0 0 0 .068.04.08.08 0 0 0 .069-.04l3.654-6.754a.077.077 0 0 1 .068-.042h1.788c.021 0 .042.008.056.023a.08.08 0 0 1 .024.056V24.06a.08.08 0 0 1-.024.055.078.078 0 0 1-.056.024h-1.644a.079.079 0 0 1-.077-.065ZM106.5 18.397a5.924 5.924 0 0 1 1.442-3.848 5.224 5.224 0 0 1 1.731-1.306 5.308 5.308 0 0 1 2.31-.487 4.894 4.894 0 0 1 2.646.699 4.385 4.385 0 0 1 1.63 1.714.078.078 0 0 1 .006.056.083.083 0 0 1-.032.046l-1.271.85a.078.078 0 0 1-.092-.005.086.086 0 0 1-.02-.025 2.967 2.967 0 0 0-.766-1.004 2.861 2.861 0 0 0-1.053-.556 4.035 4.035 0 0 0-1.106-.161 3.26 3.26 0 0 0-1.563.359 3.518 3.518 0 0 0-1.123.948 4.297 4.297 0 0 0-.687 1.322c-.152.475-.23.97-.233 1.468a4.615 4.615 0 0 0 .273 1.57c.17.488.426.941.757 1.339.32.383.717.694 1.164.915.455.226.957.34 1.465.335a3.651 3.651 0 0 0 1.132-.19c.398-.131.768-.334 1.093-.6.325-.268.584-.61.754-.996a.074.074 0 0 1 .046-.042.075.075 0 0 1 .061.005l1.349.768c.017.01.029.026.035.044a.078.078 0 0 1-.003.056 3.545 3.545 0 0 1-1.064 1.37 5.322 5.322 0 0 1-1.656.892c-.583.197-1.194.3-1.81.303a4.746 4.746 0 0 1-2.184-.503 5.51 5.51 0 0 1-1.705-1.337 6.37 6.37 0 0 1-1.116-1.882 5.925 5.925 0 0 1-.41-2.117ZM118.12 24.073V12.914c0-.02.008-.04.022-.055a.08.08 0 0 1 .055-.024h1.63c.021 0 .04.01.055.024a.08.08 0 0 1 .022.055v9.582a.08.08 0 0 0 .079.077h5.916c.021 0 .04.009.054.024a.077.077 0 0 1 .023.055v1.42c0 .021-.008.04-.023.056a.077.077 0 0 1-.054.024h-7.702a.081.081 0 0 1-.055-.024.08.08 0 0 1-.022-.055ZM131.826 24.23a5.002 5.002 0 0 1-2.215-.477 5.338 5.338 0 0 1-1.707-1.3 6.085 6.085 0 0 1-1.106-1.848 5.868 5.868 0 0 1-.391-2.113 5.723 5.723 0 0 1 .414-2.159 6.128 6.128 0 0 1 1.148-1.833 5.477 5.477 0 0 1 1.729-1.274 4.973 4.973 0 0 1 2.159-.466c.764-.01 1.52.16 2.207.494a5.373 5.373 0 0 1 1.705 1.323 6.28 6.28 0 0 1 1.102 1.85 5.884 5.884 0 0 1-.016 4.247 6.008 6.008 0 0 1-1.139 1.833 5.424 5.424 0 0 1-1.731 1.267 5.072 5.072 0 0 1-2.159.457Zm-3.603-5.738c0 .526.086 1.049.256 1.547.162.483.407.934.725 1.332a3.298 3.298 0 0 0 2.639 1.25c.531.01 1.056-.11 1.53-.351.44-.23.823-.553 1.122-.948.307-.404.543-.857.699-1.34a4.851 4.851 0 0 0 0-3.027 4.088 4.088 0 0 0-.724-1.323 3.529 3.529 0 0 0-1.139-.915 3.459 3.459 0 0 0-3.005.016 3.469 3.469 0 0 0-1.132.932 4.399 4.399 0 0 0-.698 1.323 4.736 4.736 0 0 0-.273 1.504ZM143.618 24.23a5.121 5.121 0 0 1-2.287-.465 3.96 3.96 0 0 1-1.498-1.26 5.443 5.443 0 0 1-.829-1.816 8.416 8.416 0 0 1-.263-2.12v-5.66c0-.02.008-.04.023-.055a.077.077 0 0 1 .054-.024h1.63c.021 0 .04.01.055.024a.08.08 0 0 1 .022.056v5.66c-.001.505.053 1.01.161 1.504.095.459.267.898.51 1.3.232.38.558.692.948.908a3.41 3.41 0 0 0 2.965 0c.387-.224.708-.545.931-.932a4.47 4.47 0 0 0 .503-1.3c.108-.486.161-.983.159-1.48v-5.66a.079.079 0 0 1 .079-.08h1.644c.011 0 .021.002.031.006a.08.08 0 0 1 .048.073v5.66a8.313 8.313 0 0 1-.279 2.192 5.233 5.233 0 0 1-.862 1.8c-.395.522-.911.94-1.504 1.218a5.127 5.127 0 0 1-2.241.452ZM150.468 24.073V12.914a.079.079 0 0 1 .077-.08h3.938c1.224.001 2.244.253 3.06.758a4.797 4.797 0 0 1 1.843 2.04c.415.89.625 1.864.612 2.846a6.289 6.289 0 0 1-.678 2.995 4.83 4.83 0 0 1-1.919 1.978 5.838 5.838 0 0 1-2.918.698h-3.938a.078.078 0 0 1-.054-.023.078.078 0 0 1-.023-.053Zm7.713-5.59a4.852 4.852 0 0 0-.437-2.113 3.396 3.396 0 0 0-1.26-1.434 3.681 3.681 0 0 0-2.001-.517h-2.152a.078.078 0 0 0-.055.022.075.075 0 0 0-.024.054V22.5c0 .021.009.04.024.055a.079.079 0 0 0 .055.022h2.152a3.585 3.585 0 0 0 2.017-.54 3.47 3.47 0 0 0 1.251-1.467 4.876 4.876 0 0 0 .43-2.092v.005Z"/></svg>