<svg xmlns="http://www.w3.org/2000/svg" width="27" height="27" fill="none"><path fill="#01384D" d="M19.25 17h-1.185l-.42-.405a9.75 9.75 0 0 0 2.22-8.01c-.705-4.17-4.185-7.5-8.385-8.01C5.135-.205-.19 5.135.575 11.48c.51 4.2 3.84 7.68 8.01 8.385a9.75 9.75 0 0 0 8.01-2.22l.405.42v1.185l6.39 6.375a1.566 1.566 0 0 0 2.22 0l.015-.015a1.566 1.566 0 0 0 0-2.22L19.25 17Zm-9 0a6.741 6.741 0 0 1-6.75-6.75 6.741 6.741 0 0 1 6.75-6.75A6.741 6.741 0 0 1 17 10.25 6.741 6.741 0 0 1 10.25 17Zm0-10.5c-.42 0-.75.33-.75.75V9.5H7.25c-.42 0-.75.33-.75.75s.33.75.75.75H9.5v2.25c0 .42.33.75.75.75s.75-.33.75-.75V11h2.25c.42 0 .75-.33.75-.75s-.33-.75-.75-.75H11V7.25c0-.42-.33-.75-.75-.75Z"/></svg>