<svg xmlns="http://www.w3.org/2000/svg" width="24" height="21" fill="none"><path fill="#01384D" d="M23.988 4.855c-.104 2.367-1.739 5.602-4.891 9.707C15.834 18.855 13.07 21 10.81 21c-1.397 0-2.581-1.305-3.548-3.924-.648-2.402-1.291-4.804-1.937-7.2-.72-2.62-1.49-3.929-2.315-3.929-.179 0-.804.382-1.882 1.148L0 5.619a324.64 324.64 0 0 0 3.498-3.16C5.073 1.076 6.257.35 7.048.275c1.862-.183 3.01 1.109 3.444 3.872.461 2.983.786 4.838.965 5.565.54 2.472 1.129 3.706 1.775 3.706.501 0 1.255-.799 2.26-2.397 1.004-1.601 1.539-2.817 1.612-3.656.144-1.382-.393-2.069-1.612-2.069a4.53 4.53 0 0 0-1.776.38c1.186-3.89 3.443-5.782 6.78-5.671 2.47.07 3.637 1.69 3.492 4.85Z"/></svg>