<svg xmlns="http://www.w3.org/2000/svg" width="255" height="41" fill="none"><path fill="#00094A" fill-rule="evenodd" d="M112.058.932H.942v39.136h111.116V.932ZM0 0v41h113V0H0Z" clip-rule="evenodd"/><path fill="#00094A" d="M113 0h142v41H113V0Z"/><path fill="#06A39C" fill-rule="evenodd" d="m126.761 18.042 1.655 1.673c.48.485.48 1.28 0 1.764l-1.655 1.673a1.23 1.23 0 0 1-1.746 0l-1.655-1.673a1.26 1.26 0 0 1 0-1.764l1.655-1.673a1.23 1.23 0 0 1 1.746 0ZM126.761 27.763l1.655 1.673c.48.485.48 1.28 0 1.764l-1.655 1.673a1.23 1.23 0 0 1-1.746 0L123.36 31.2a1.26 1.26 0 0 1 0-1.764l1.655-1.673a1.227 1.227 0 0 1 1.746 0Z" clip-rule="evenodd"/><path fill="#30D2A3" fill-rule="evenodd" d="m136.378 8.32 1.655 1.673c.48.485.48 1.279 0 1.764l-1.655 1.673a1.23 1.23 0 0 1-1.746 0l-1.655-1.673a1.26 1.26 0 0 1 0-1.764l1.655-1.673a1.23 1.23 0 0 1 1.746 0ZM136.378 18.042l1.655 1.673c.48.485.48 1.28 0 1.764l-1.655 1.673a1.23 1.23 0 0 1-1.746 0l-1.655-1.673a1.26 1.26 0 0 1 0-1.764l1.655-1.673a1.23 1.23 0 0 1 1.746 0Z" clip-rule="evenodd"/><path fill="#06A39C" fill-rule="evenodd" d="m136.378 27.763 1.655 1.673c.48.485.48 1.28 0 1.764l-1.655 1.673a1.23 1.23 0 0 1-1.746 0l-1.655-1.673a1.26 1.26 0 0 1 0-1.764l1.655-1.673a1.227 1.227 0 0 1 1.746 0Z" clip-rule="evenodd"/><path fill="#30D2A3" fill-rule="evenodd" d="m145.997 8.32 1.655 1.673c.48.485.48 1.279 0 1.764l-1.655 1.673a1.23 1.23 0 0 1-1.746 0l-1.655-1.673a1.26 1.26 0 0 1 0-1.764l1.655-1.673a1.23 1.23 0 0 1 1.746 0ZM145.997 18.042l1.655 1.673c.48.485.48 1.28 0 1.764l-1.655 1.673a1.23 1.23 0 0 1-1.746 0l-1.655-1.673a1.26 1.26 0 0 1 0-1.764l1.655-1.673a1.23 1.23 0 0 1 1.746 0Z" clip-rule="evenodd"/><path fill="#06A39C" fill-rule="evenodd" d="m145.997 27.763 1.655 1.673c.48.485.48 1.28 0 1.764l-1.655 1.673a1.23 1.23 0 0 1-1.746 0l-1.655-1.673a1.26 1.26 0 0 1 0-1.764l1.655-1.673a1.227 1.227 0 0 1 1.746 0Z" clip-rule="evenodd"/><path fill="#30D2A3" fill-rule="evenodd" d="m126.761 8.32 1.655 1.673c.48.485.48 1.279 0 1.764l-1.655 1.673a1.23 1.23 0 0 1-1.746 0l-1.655-1.673a1.26 1.26 0 0 1 0-1.764l1.655-1.673a1.23 1.23 0 0 1 1.746 0Z" clip-rule="evenodd"/><path fill="#fff" fill-rule="evenodd" d="m162.429 20.637.566 1.442c.068.182.204.25.384.182l1.607-.526c.249-.069.271-.274.204-.458l-.294-.96c-.249-.824-.294-1.67-.294-2.585v-3.98c0-3.088-2.421-4.3-5.091-4.3-2.263 0-3.801.618-5.317 1.739-.159.114-.204.342-.046.526l.883 1.257c.113.16.361.183.543.069 1.268-.8 2.286-1.098 3.938-1.098 1.358 0 2.466.435 2.466 1.51v.274l-3.982.527c-2.783.365-4.435 1.83-4.435 4.14 0 2.333 1.81 3.888 4.412 3.888 1.81 0 3.236-.572 4.344-1.647h.112Zm-.453-2.584c-.792 1.075-2.013 1.738-3.733 1.738-1.426 0-2.059-.595-2.059-1.532 0-.801.566-1.419 1.81-1.624l3.983-.664v2.082h-.001ZM167.814 6c-.203 0-.316.114-.316.32v15.46c0 .206.113.32.316.32h1.539c.181 0 .294-.091.339-.274l.181-.823.158-.023c.928.915 2.263 1.304 3.643 1.304 3.62 0 6.359-2.584 6.359-6.426s-2.67-6.403-6.359-6.403c-1.358 0-2.489.342-3.552 1.234V6.321c0-.206-.113-.32-.317-.32L167.814 6Zm2.309 7.456c.972-1.006 1.945-1.487 3.552-1.487 2.15 0 3.756 1.51 3.756 3.889 0 2.402-1.607 3.911-3.756 3.911-1.516 0-2.58-.48-3.552-1.555v-4.758Zm12.037-3.82c-.203 0-.316.114-.316.32v6.861c0 3.796 2.059 5.466 5.136 5.466 1.358 0 2.602-.388 3.666-1.373h.135l.204.915c.045.183.158.274.361.274h1.607c.203 0 .316-.114.316-.32V9.957c0-.205-.113-.32-.316-.32h-1.991c-.203 0-.316.115-.316.32v8.211c-.815 1.075-2.128 1.601-3.394 1.601-1.901 0-2.783-.937-2.783-3.11V9.957c0-.205-.113-.32-.317-.32h-1.992Zm14.776.046-1.471.137c-.181.023-.272.137-.272.297v1.67c0 .205.113.32.317.32h1.403v5.992c0 2.447 1.176 4.185 3.893 4.185 1.153 0 2.013-.251 2.85-.8.204-.115.249-.252.158-.458l-.611-1.464c-.068-.16-.203-.252-.453-.137-.476.25-1.018.365-1.629.365-.973 0-1.584-.595-1.584-1.761v-5.924h3.349c.203 0 .316-.114.316-.32v-1.83c0-.205-.113-.319-.316-.319h-3.349V7.211a.31.31 0 0 0-.317-.32h-1.718c-.181 0-.294.114-.317.32l-.249 2.47Zm18.917 8.829c-.113-.137-.248-.137-.361-.023-1.177.983-2.399 1.304-3.938 1.304-1.991 0-3.394-1.097-3.825-2.676h9.685c.18 0 .271-.114.271-.32v-.914c0-3.728-2.58-6.427-6.245-6.427-3.688 0-6.449 2.698-6.449 6.427 0 3.682 2.692 6.403 6.562 6.403 1.81 0 3.733-.526 5.362-1.92.113-.115.136-.252.023-.366l-1.085-1.488Zm-4.413-6.564c1.787 0 3.394 1.097 3.575 2.698h-7.309c.362-1.578 1.901-2.698 3.734-2.698Zm14.436-2.493c-3.62 0-6.381 2.698-6.381 6.38s2.76 6.45 6.381 6.45c2.264 0 4.232-1.006 5.385-2.927.091-.114.068-.251-.045-.365l-1.426-1.143c-.135-.115-.248-.115-.361 0-.928 1.372-2.014 1.92-3.553 1.92-2.24 0-3.755-1.67-3.755-3.934 0-2.265 1.493-3.866 3.755-3.866 1.539 0 2.557.572 3.485 1.853.09.114.271.205.429.045l1.426-1.097c.113-.091.136-.206.045-.365-1.084-1.877-3.257-2.951-5.385-2.951ZM233.797 6c-.204 0-.317.114-.317.32v15.46c0 .206.113.32.317.32h1.991c.203 0 .316-.114.316-.32v-8.37c.905-1.005 1.968-1.44 3.304-1.44 1.81 0 2.873 1.051 2.873 3.247v6.565c0 .205.113.32.316.32h1.991c.204 0 .317-.115.317-.32v-6.656c0-3.75-2.309-5.672-5.498-5.672-1.268 0-2.376.365-3.304 1.257V6.32c0-.206-.113-.32-.316-.32h-1.99Z" clip-rule="evenodd"/><path fill="#fff" d="M155.732 33.439a3.51 3.51 0 0 1-.998-.142c-.319-.1-.569-.224-.75-.373l.319-.631c.186.138.413.249.679.332.266.083.534.124.805.124.671 0 1.006-.199 1.006-.598a.393.393 0 0 0-.136-.315.806.806 0 0 0-.343-.166 5.819 5.819 0 0 0-.574-.125 5.596 5.596 0 0 1-.838-.19 1.281 1.281 0 0 1-.551-.366c-.154-.172-.231-.413-.231-.723 0-.398.159-.717.479-.955.319-.244.747-.365 1.284-.365.282 0 .564.036.846.108.282.072.513.169.694.29l-.327.631c-.346-.232-.753-.348-1.221-.348-.324 0-.572.055-.742.166-.17.11-.255.257-.255.44a.43.43 0 0 0 .143.34.898.898 0 0 0 .352.183c.143.039.343.083.598.133.34.061.614.127.822.2.213.066.394.182.543.348.149.166.223.399.223.698 0 .398-.165.717-.495.955-.324.232-.768.349-1.332.349ZM160.328 33.439a2.22 2.22 0 0 1-1.133-.291 2.093 2.093 0 0 1-.79-.797 2.39 2.39 0 0 1-.28-1.163c0-.432.093-.817.28-1.154a2.02 2.02 0 0 1 .79-.798 2.22 2.22 0 0 1 1.133-.29c.42 0 .795.097 1.125.29.335.189.596.454.782.798.191.337.287.722.287 1.154 0 .432-.096.82-.287 1.163a2.045 2.045 0 0 1-.782.797 2.18 2.18 0 0 1-1.125.29Zm0-.698c.271 0 .513-.064.726-.191.218-.133.388-.316.511-.548a1.76 1.76 0 0 0 .183-.814c0-.304-.061-.573-.183-.805a1.318 1.318 0 0 0-.511-.549 1.388 1.388 0 0 0-.726-.19c-.272 0-.516.063-.734.19-.213.128-.383.31-.511.549a1.709 1.709 0 0 0-.184.805c0 .305.062.576.184.814.128.232.298.415.511.548.218.127.462.191.734.191ZM165.13 27.833c-.458 0-.687.257-.687.772v.382h1.229v.656h-1.213v3.746h-.766v-3.746h-.718v-.656h.718v-.39c0-.438.123-.784.367-1.038.245-.255.588-.382 1.03-.382.17 0 .33.022.478.066.149.045.277.108.383.191l-.231.607a.928.928 0 0 0-.59-.208ZM168.773 33.131c-.112.1-.25.178-.415.233-.165.05-.335.075-.511.075-.426 0-.755-.12-.989-.357-.235-.239-.352-.579-.352-1.022v-2.417h-.718v-.656h.718v-.963h.766v.963h1.213v.656h-1.213v2.384c0 .238.056.42.168.548.117.127.282.191.495.191.234 0 .433-.07.598-.208l.24.573ZM176.02 28.987l-1.579 4.402h-.735l-1.22-3.339-1.237 3.339h-.734l-1.572-4.402h.726l1.229 3.505 1.276-3.505h.647l1.252 3.521 1.261-3.52h.686ZM178.205 28.946c.586 0 1.032.15 1.341.448.314.3.471.745.471 1.337v2.658h-.726v-.582a1.25 1.25 0 0 1-.551.474 2.031 2.031 0 0 1-.838.158c-.473 0-.854-.12-1.141-.357a1.168 1.168 0 0 1-.423-.939c0-.387.136-.698.407-.93.271-.238.702-.357 1.293-.357h1.213v-.158c0-.343-.096-.606-.288-.789-.191-.183-.473-.274-.845-.274-.25 0-.495.044-.734.133a1.81 1.81 0 0 0-.607.34l-.319-.598c.218-.182.479-.32.782-.415.303-.1.625-.15.965-.15Zm-.175 3.878c.292 0 .545-.066.758-.2.213-.138.367-.331.463-.58v-.615h-1.181c-.649 0-.974.227-.974.68 0 .222.083.397.248.524.165.127.393.191.686.191ZM182.169 29.726c.133-.254.329-.448.59-.581.261-.133.577-.2.95-.2v.773a1.432 1.432 0 0 0-.176-.008c-.415 0-.742.13-.981.39-.234.255-.352.62-.352 1.096v2.193h-.766v-4.402h.735v.74ZM188.436 31.213c0 .06-.005.141-.016.24h-3.431c.048.388.21.701.487.94.282.232.63.348 1.045.348.505 0 .912-.177 1.221-.532l.423.515c-.192.233-.431.41-.718.532a2.374 2.374 0 0 1-.95.183c-.447 0-.843-.095-1.189-.283a2.057 2.057 0 0 1-.806-.805 2.4 2.4 0 0 1-.279-1.163c0-.426.09-.811.271-1.154.186-.344.439-.61.758-.798.325-.193.689-.29 1.093-.29.405 0 .764.097 1.078.29.319.189.566.454.742.798.181.343.271.736.271 1.179Zm-2.091-1.595c-.367 0-.675.117-.925.35-.245.232-.389.536-.431.913h2.713a1.413 1.413 0 0 0-.439-.905 1.265 1.265 0 0 0-.918-.358ZM195.633 27.227v6.162h-.735v-.698a1.67 1.67 0 0 1-.646.557 1.937 1.937 0 0 1-.862.19c-.409 0-.776-.094-1.101-.282a2.022 2.022 0 0 1-.766-.789 2.49 2.49 0 0 1-.271-1.179c0-.443.09-.833.271-1.171.186-.338.442-.6.766-.789a2.156 2.156 0 0 1 1.101-.282c.304 0 .583.06.838.182.256.117.468.291.639.524v-2.425h.766Zm-2.179 5.514c.266 0 .508-.064.726-.191a1.38 1.38 0 0 0 .511-.548 1.76 1.76 0 0 0 .184-.814c0-.304-.062-.573-.184-.805a1.312 1.312 0 0 0-.511-.549 1.413 1.413 0 0 0-.726-.19 1.43 1.43 0 0 0-.734.19c-.213.128-.383.31-.511.549a1.709 1.709 0 0 0-.183.805c0 .305.061.576.183.814.128.232.298.415.511.548.218.127.463.191.734.191ZM200.904 31.213c0 .06-.005.141-.016.24h-3.431c.048.388.21.701.487.94.282.232.63.348 1.045.348.506 0 .912-.177 1.221-.532l.423.515c-.192.233-.431.41-.718.532a2.374 2.374 0 0 1-.95.183c-.447 0-.843-.095-1.189-.283a2.057 2.057 0 0 1-.806-.805 2.4 2.4 0 0 1-.279-1.163c0-.426.09-.811.271-1.154.186-.344.439-.61.758-.798.325-.193.689-.29 1.094-.29.404 0 .763.097 1.077.29.319.189.566.454.742.798.181.343.271.736.271 1.179Zm-2.09-1.595a1.31 1.31 0 0 0-.926.35c-.245.232-.388.536-.431.913h2.713a1.409 1.409 0 0 0-.439-.905 1.26 1.26 0 0 0-.917-.358ZM205.632 28.987l-1.851 4.402h-.782l-1.851-4.402h.798l1.452 3.53 1.484-3.53h.75ZM210.053 31.213c0 .06-.006.141-.016.24h-3.431c.047.388.21.701.486.94.282.232.631.348 1.046.348.505 0 .912-.177 1.221-.532l.422.515c-.191.233-.43.41-.718.532a2.37 2.37 0 0 1-.949.183c-.447 0-.843-.095-1.189-.283a2.05 2.05 0 0 1-.806-.805 2.4 2.4 0 0 1-.279-1.163c0-.426.09-.811.271-1.154.186-.344.439-.61.758-.798a2.09 2.09 0 0 1 1.093-.29c.404 0 .763.097 1.077.29.32.189.567.454.742.798.181.343.272.736.272 1.179Zm-2.091-1.595a1.31 1.31 0 0 0-.926.35c-.244.232-.388.536-.43.913h2.713a1.413 1.413 0 0 0-.439-.905 1.265 1.265 0 0 0-.918-.358ZM211.116 27.227h.767v6.162h-.767v-6.162ZM215.157 33.439c-.421 0-.798-.097-1.134-.291a2.107 2.107 0 0 1-.79-.797 2.4 2.4 0 0 1-.279-1.163c0-.432.093-.817.279-1.154.192-.344.455-.61.79-.798.336-.193.713-.29 1.134-.29.42 0 .795.097 1.125.29.335.189.596.454.782.798.191.337.287.722.287 1.154 0 .432-.096.82-.287 1.163a2.045 2.045 0 0 1-.782.797 2.18 2.18 0 0 1-1.125.29Zm0-.698c.271 0 .513-.064.726-.191.218-.133.388-.316.51-.548.123-.238.184-.51.184-.814 0-.304-.061-.573-.184-.805a1.31 1.31 0 0 0-.51-.549 1.388 1.388 0 0 0-.726-.19c-.272 0-.516.063-.735.19-.212.128-.383.31-.51.549a1.697 1.697 0 0 0-.184.805c0 .305.061.576.184.814.127.232.298.415.51.548.219.127.463.191.735.191ZM220.653 28.946c.409 0 .776.094 1.101.282.324.188.577.451.758.789.186.338.279.728.279 1.171 0 .443-.093.836-.279 1.18-.181.337-.434.6-.758.788a2.157 2.157 0 0 1-1.101.283c-.304 0-.583-.061-.838-.183a1.764 1.764 0 0 1-.639-.532V35h-.766v-6.013h.735v.698c.17-.244.385-.426.646-.548.261-.128.548-.191.862-.191Zm-.064 3.795c.271 0 .513-.064.726-.191.218-.133.388-.316.511-.548.127-.238.191-.51.191-.814 0-.304-.064-.573-.191-.805a1.318 1.318 0 0 0-.511-.549 1.388 1.388 0 0 0-.726-.19c-.266 0-.508.066-.726.199a1.399 1.399 0 0 0-.511.54 1.709 1.709 0 0 0-.184.805c0 .305.062.576.184.814.122.232.293.415.511.548.218.127.46.191.726.191ZM229.14 28.946c.532 0 .952.16 1.261.481.314.322.471.798.471 1.429v2.533h-.766v-2.442c0-.426-.096-.747-.288-.963-.186-.216-.454-.324-.806-.324-.388 0-.696.127-.925.382-.229.25-.343.609-.343 1.08v2.267h-.766v-2.442c0-.426-.096-.747-.288-.963-.186-.216-.454-.324-.806-.324-.388 0-.696.127-.925.382-.229.25-.343.609-.343 1.08v2.267h-.766v-4.402h.734v.656c.154-.227.356-.398.606-.515.25-.121.535-.182.854-.182.33 0 .622.069.878.207.255.139.452.34.59.607.16-.255.381-.454.663-.598.287-.144.609-.216.965-.216ZM236.127 31.213c0 .06-.005.141-.016.24h-3.431c.048.388.21.701.486.94.282.232.631.348 1.046.348.505 0 .912-.177 1.221-.532l.423.515c-.192.233-.431.41-.719.532a2.37 2.37 0 0 1-.949.183c-.447 0-.843-.095-1.189-.283a2.05 2.05 0 0 1-.806-.805 2.4 2.4 0 0 1-.279-1.163c0-.426.09-.811.271-1.154.186-.344.439-.61.758-.798a2.09 2.09 0 0 1 1.093-.29c.404 0 .764.097 1.077.29.32.189.567.454.743.798.18.343.271.736.271 1.179Zm-2.091-1.595c-.367 0-.675.117-.925.35-.245.232-.389.536-.431.913h2.713a1.413 1.413 0 0 0-.439-.905 1.265 1.265 0 0 0-.918-.358ZM239.449 28.946c.537 0 .963.163 1.277.49.319.32.478.794.478 1.42v2.533h-.766v-2.442c0-.426-.098-.747-.295-.963-.197-.216-.479-.324-.846-.324-.415 0-.742.127-.981.382-.24.25-.359.609-.359 1.08v2.267h-.766v-4.402h.734v.665c.154-.227.361-.402.622-.524.266-.121.567-.182.902-.182ZM245 33.131c-.112.1-.25.178-.415.233-.165.05-.335.075-.511.075-.425 0-.755-.12-.989-.357-.234-.239-.351-.579-.351-1.022v-2.417h-.718v-.656h.718v-.963h.766v.963h1.213v.656H243.5v2.384c0 .238.056.42.167.548.117.127.282.191.495.191.234 0 .434-.07.599-.208l.239.573Z"/><path fill="#00094A" d="M20.863 6.109h1.154v9.52h-1.154v-1.17c-.575.897-1.41 1.346-2.507 1.346-.929 0-1.72-.345-2.375-1.034-.654-.698-.981-1.545-.981-2.543 0-.997.327-1.84.982-2.529.654-.698 1.445-1.047 2.374-1.047 1.096 0 1.932.449 2.507 1.346v-3.89Zm-2.361 8.554c.672 0 1.233-.232 1.684-.694.451-.471.677-1.052.677-1.74 0-.69-.226-1.265-.677-1.728-.45-.471-1.012-.707-1.684-.707a2.22 2.22 0 0 0-1.672.707c-.45.463-.676 1.038-.676 1.727 0 .69.226 1.27.676 1.741.451.463 1.009.694 1.672.694ZM24.574 12.772c.115.608.385 1.08.81 1.415.433.335.963.503 1.59.503.876 0 1.513-.331 1.911-.993l.981.571c-.645 1.025-1.618 1.537-2.918 1.537-1.052 0-1.91-.335-2.573-1.006-.654-.68-.981-1.537-.981-2.57 0-1.025.322-1.877.968-2.557.646-.68 1.481-1.02 2.507-1.02.973 0 1.764.353 2.374 1.06.62.699.929 1.542.929 2.53 0 .172-.014.349-.04.53h-5.558Zm2.295-3.005c-.62 0-1.132.181-1.539.544-.407.354-.659.83-.756 1.428h4.43c-.097-.644-.345-1.133-.742-1.469a2.095 2.095 0 0 0-1.393-.503ZM32.234 10.665c0 .262.128.476.384.639.257.154.566.28.929.38.363.091.725.2 1.088.327.362.118.672.326.928.625.257.29.385.667.385 1.13 0 .616-.235 1.11-.703 1.481-.46.372-1.052.558-1.778.558-.645 0-1.198-.145-1.658-.435a2.416 2.416 0 0 1-.981-1.156l.995-.585c.106.327.305.585.596.775.292.19.642.286 1.048.286.38 0 .694-.073.942-.218.248-.154.372-.39.372-.707 0-.263-.129-.471-.385-.626a3.14 3.14 0 0 0-.929-.38 16.74 16.74 0 0 1-1.087-.34 2.183 2.183 0 0 1-.929-.626c-.256-.29-.384-.662-.384-1.115 0-.59.22-1.074.663-1.455.45-.38 1.012-.571 1.684-.571.54 0 1.017.127 1.433.38.424.245.743.59.955 1.034l-.968.558c-.24-.58-.712-.87-1.42-.87-.327 0-.605.08-.835.244a.754.754 0 0 0-.345.667ZM37.833 7.591a.748.748 0 0 1-.557-.231.77.77 0 0 1-.226-.558.77.77 0 0 1 .226-.557.728.728 0 0 1 .557-.245c.212 0 .393.082.544.245a.77.77 0 0 1 .225.557.77.77 0 0 1-.225.558.732.732 0 0 1-.544.231Zm-.584 8.037v-6.8h1.154v6.8H37.25ZM45.668 8.829h1.141v6.514c0 1.006-.331 1.786-.995 2.339-.663.562-1.459.843-2.387.843-.743 0-1.384-.145-1.924-.435a2.781 2.781 0 0 1-1.22-1.224l1.008-.585c.363.762 1.083 1.142 2.162 1.142.69 0 1.23-.186 1.618-.557.398-.372.597-.88.597-1.523v-.966c-.583.907-1.414 1.36-2.493 1.36-.947 0-1.747-.345-2.401-1.034-.654-.689-.982-1.527-.982-2.515 0-.989.328-1.823.982-2.503.654-.689 1.454-1.033 2.4-1.033 1.088 0 1.92.449 2.494 1.346v-1.17Zm-4.045 5.086c.45.462 1.012.693 1.684.693.672 0 1.234-.23 1.685-.693.45-.463.676-1.038.676-1.727 0-.68-.225-1.252-.676-1.714-.451-.462-1.013-.693-1.685-.693-.672 0-1.233.23-1.684.693-.451.463-.677 1.034-.677 1.714 0 .689.226 1.264.677 1.727ZM51.86 8.652c.778 0 1.402.254 1.87.761.47.499.703 1.179.703 2.04v4.175H53.28v-4.107c0-.553-.146-.979-.437-1.278-.292-.308-.694-.462-1.207-.462-.575 0-1.04.185-1.393.557-.354.363-.53.925-.53 1.686v3.604h-1.155v-6.8h1.154v.98c.47-.77 1.185-1.156 2.15-1.156ZM56.853 12.772c.115.608.385 1.08.81 1.415.433.335.963.503 1.591.503.876 0 1.512-.331 1.91-.993l.982.571c-.646 1.025-1.618 1.537-2.918 1.537-1.053 0-1.91-.335-2.574-1.006-.654-.68-.981-1.537-.981-2.57 0-1.025.323-1.877.968-2.557.646-.68 1.481-1.02 2.507-1.02.973 0 1.764.353 2.374 1.06.62.699.929 1.542.929 2.53 0 .172-.013.349-.04.53h-5.558Zm2.295-3.005c-.619 0-1.132.181-1.539.544-.406.354-.658.83-.756 1.428h4.43c-.097-.644-.344-1.133-.742-1.469a2.095 2.095 0 0 0-1.393-.503ZM69.256 6.109h1.154v9.52h-1.154v-1.17c-.575.897-1.41 1.346-2.507 1.346-.929 0-1.72-.345-2.374-1.034-.655-.698-.982-1.545-.982-2.543 0-.997.327-1.84.982-2.529.654-.698 1.445-1.047 2.374-1.047 1.096 0 1.932.449 2.507 1.346v-3.89Zm-2.361 8.554c.672 0 1.233-.232 1.684-.694.451-.471.677-1.052.677-1.74 0-.69-.226-1.265-.677-1.728-.45-.471-1.012-.707-1.684-.707a2.22 2.22 0 0 0-1.671.707c-.452.463-.677 1.038-.677 1.727 0 .69.225 1.27.677 1.741.45.463 1.008.694 1.67.694ZM80.965 8.829h1.154v6.8h-1.154v-1.17c-.574.897-1.41 1.346-2.507 1.346-.928 0-1.72-.345-2.374-1.034-.654-.698-.981-1.545-.981-2.543 0-.997.327-1.84.981-2.529.655-.698 1.446-1.047 2.374-1.047 1.097 0 1.933.449 2.507 1.346v-1.17Zm-2.36 5.834c.671 0 1.233-.232 1.684-.694.45-.471.676-1.052.676-1.74 0-.69-.225-1.265-.676-1.728-.451-.471-1.013-.707-1.685-.707a2.22 2.22 0 0 0-1.67.707c-.452.463-.677 1.038-.677 1.727 0 .69.225 1.27.676 1.741.451.463 1.008.694 1.671.694ZM87.17 8.652c.779 0 1.402.254 1.87.761.47.499.704 1.179.704 2.04v4.175H88.59v-4.107c0-.553-.146-.979-.438-1.278-.292-.308-.694-.462-1.207-.462-.575 0-1.039.185-1.393.557-.353.363-.53.925-.53 1.686v3.604h-1.154v-6.8h1.154v.98c.468-.77 1.185-1.156 2.148-1.156ZM96.846 6.109H98v9.52h-1.154v-1.17c-.575.897-1.41 1.346-2.507 1.346-.928 0-1.72-.345-2.374-1.034-.654-.698-.982-1.545-.982-2.543 0-.997.328-1.84.982-2.529.654-.698 1.446-1.047 2.374-1.047 1.097 0 1.932.449 2.507 1.346v-3.89Zm-2.361 8.554c.672 0 1.234-.232 1.685-.694.45-.471.676-1.052.676-1.74 0-.69-.225-1.265-.676-1.728-.451-.471-1.013-.707-1.685-.707a2.22 2.22 0 0 0-1.671.707c-.451.463-.677 1.038-.677 1.727 0 .69.226 1.27.677 1.741.45.463 1.008.694 1.671.694ZM20.863 22.76h1.154v9.52h-1.154v-1.17c-.575.898-1.41 1.347-2.507 1.347-.929 0-1.72-.345-2.375-1.034-.654-.698-.981-1.545-.981-2.543 0-.997.327-1.84.982-2.529.654-.698 1.445-1.047 2.374-1.047 1.096 0 1.932.449 2.507 1.346v-3.89Zm-2.361 8.555c.672 0 1.233-.232 1.684-.694.451-.471.677-1.052.677-1.74 0-.69-.226-1.265-.677-1.728-.45-.471-1.012-.707-1.684-.707-.663 0-1.22.236-1.672.707-.45.463-.676 1.038-.676 1.727 0 .69.226 1.27.676 1.741.451.463 1.009.694 1.672.694ZM24.574 29.424c.115.608.385 1.08.81 1.415.433.335.963.503 1.59.503.876 0 1.513-.331 1.911-.993l.981.571c-.645 1.025-1.618 1.537-2.918 1.537-1.052 0-1.91-.336-2.573-1.006-.654-.68-.981-1.537-.981-2.57 0-1.025.322-1.877.968-2.557.646-.68 1.481-1.02 2.507-1.02.973 0 1.764.353 2.374 1.06.62.699.929 1.542.929 2.53 0 .172-.014.349-.04.53h-5.558Zm2.295-3.005c-.62 0-1.132.181-1.539.544-.407.354-.659.83-.756 1.428h4.43c-.097-.644-.345-1.133-.742-1.469a2.095 2.095 0 0 0-1.393-.503ZM35.881 25.48h1.247l-2.653 6.8h-1.352l-2.653-6.8h1.247l2.082 5.535 2.082-5.534ZM38.654 29.424c.115.608.385 1.08.81 1.415.433.335.963.503 1.591.503.876 0 1.512-.331 1.91-.993l.982.571c-.646 1.025-1.619 1.537-2.919 1.537-1.052 0-1.91-.336-2.573-1.006-.654-.68-.981-1.537-.981-2.57 0-1.025.323-1.877.968-2.557.646-.68 1.481-1.02 2.507-1.02.973 0 1.764.353 2.374 1.06.62.699.929 1.542.929 2.53 0 .172-.014.349-.04.53h-5.558Zm2.295-3.005c-.619 0-1.132.181-1.539.544-.406.354-.658.83-.756 1.428h4.43c-.097-.644-.344-1.133-.742-1.469a2.095 2.095 0 0 0-1.393-.503ZM45.578 32.28v-9.927h1.154v9.927h-1.154ZM54.09 31.423a3.357 3.357 0 0 1-2.48 1.034c-.973 0-1.8-.345-2.48-1.034-.673-.689-1.009-1.536-1.009-2.543 0-1.006.336-1.854 1.008-2.543a3.357 3.357 0 0 1 2.48-1.033c.973 0 1.8.344 2.481 1.033.681.69 1.021 1.537 1.021 2.543 0 1.007-.34 1.854-1.02 2.543Zm-2.48-.122c.663 0 1.22-.231 1.671-.693.451-.463.677-1.039.677-1.728 0-.689-.226-1.264-.677-1.727-.451-.462-1.008-.693-1.671-.693-.655 0-1.207.23-1.658.693-.451.463-.677 1.038-.677 1.727 0 .69.226 1.265.677 1.728a2.226 2.226 0 0 0 1.658.693ZM60.133 25.304c.928 0 1.72.349 2.374 1.047.654.689.982 1.532.982 2.53 0 .997-.328 1.844-.982 2.542-.654.69-1.446 1.034-2.374 1.034-1.097 0-1.932-.449-2.507-1.346V35h-1.154v-9.52h1.154v1.17c.575-.897 1.41-1.346 2.507-1.346Zm-.146 6.01c.663 0 1.22-.23 1.671-.693.451-.471.676-1.052.676-1.74 0-.69-.225-1.265-.676-1.728a2.221 2.221 0 0 0-1.671-.707c-.672 0-1.234.236-1.685.707-.45.463-.676 1.038-.676 1.727 0 .69.225 1.27.676 1.741.451.463 1.013.694 1.685.694ZM65.675 29.424c.115.608.384 1.08.809 1.415.433.335.964.503 1.591.503.876 0 1.513-.331 1.91-.993l.982.571c-.646 1.025-1.618 1.537-2.918 1.537-1.052 0-1.91-.336-2.573-1.006-.655-.68-.982-1.537-.982-2.57 0-1.025.323-1.877.968-2.557.646-.68 1.481-1.02 2.507-1.02.973 0 1.764.353 2.375 1.06.619.699.928 1.542.928 2.53 0 .172-.013.349-.04.53h-5.557Zm2.294-3.005c-.619 0-1.132.181-1.538.544-.407.354-.66.83-.756 1.428h4.43c-.098-.644-.345-1.133-.743-1.469a2.095 2.095 0 0 0-1.393-.503ZM78.077 22.76h1.154v9.52h-1.154v-1.17c-.575.898-1.41 1.347-2.507 1.347-.928 0-1.72-.345-2.374-1.034-.655-.698-.982-1.545-.982-2.543 0-.997.327-1.84.982-2.529.654-.698 1.445-1.047 2.374-1.047 1.097 0 1.932.449 2.507 1.346v-3.89Zm-2.361 8.555c.672 0 1.233-.232 1.684-.694.451-.471.677-1.052.677-1.74 0-.69-.226-1.265-.677-1.728-.45-.471-1.012-.707-1.684-.707-.663 0-1.22.236-1.671.707-.451.463-.677 1.038-.677 1.727 0 .69.226 1.27.677 1.741.45.463 1.008.694 1.67.694ZM84.879 24.243a.747.747 0 0 1-.557-.231.77.77 0 0 1-.226-.558.77.77 0 0 1 .226-.557.727.727 0 0 1 .557-.245c.212 0 .393.082.544.245a.77.77 0 0 1 .225.557.77.77 0 0 1-.225.558.732.732 0 0 1-.544.231Zm-.584 8.037v-6.8h1.154v6.8h-1.154ZM90.512 25.304c.779 0 1.402.254 1.87.761.47.499.704 1.179.704 2.04v4.175h-1.154v-4.107c0-.553-.146-.979-.438-1.278-.292-.308-.694-.462-1.207-.462-.575 0-1.04.185-1.393.557-.354.363-.53.925-.53 1.686v3.604H87.21v-6.8h1.154v.98c.468-.77 1.185-1.156 2.148-1.156Z"/></svg>