<svg xmlns="http://www.w3.org/2000/svg" width="24" height="17" fill="none"><path fill="#01384D" fill-rule="evenodd" d="M22.806 1.268c.72.734.954 2.4.954 2.4s.24 1.955.24 3.91v1.835c0 1.956-.24 3.912-.24 3.912s-.235 1.665-.954 2.399c-.822.867-1.734.957-2.25 1.007l-.155.017C17.043 16.992 12 17 12 17s-6.24-.057-8.16-.243c-.091-.017-.201-.03-.326-.046-.608-.073-1.563-.188-2.32-.987-.72-.734-.954-2.4-.954-2.4S0 11.37 0 9.414V7.579c0-1.956.24-3.912.24-3.912s.234-1.665.953-2.399C2.017.4 2.93.311 3.445.261c.056-.006.108-.01.154-.016C6.957 0 11.995 0 11.995 0h.01s5.038 0 8.396.245l.154.016c.515.05 1.428.138 2.251 1.007ZM9.521 4.844l.001 6.791 6.484-3.384L9.52 4.844Z" clip-rule="evenodd"/></svg>